<?xml version="1.0" encoding="utf-8" ?>
<svg xmlns="http://www.w3.org/2000/svg" xmlns:xlink="http://www.w3.org/1999/xlink" width="512" height="512">
	<path fill="rgb(122,163,204)" stroke="none" d="M32.2478 113.796L144.124 162.839L144.124 305.043L32.2478 256L32.2478 113.796Z"/>
	<path fill="rgb(137,183,229)" stroke="none" d="M256 113.796L256 256L144.124 305.043L144.124 162.839L256 113.796Z"/>
	<path fill="rgb(153,204,255)" stroke="none" d="M144.124 64.7525L256 113.796L144.124 162.839L32.2478 113.796L144.124 64.7525Z"/>
	<path fill="rgb(122,163,204)" stroke="none" d="M256 113.796L367.876 162.839L367.876 305.043L256 256L256 113.796Z"/>
	<path fill="rgb(137,183,229)" stroke="none" d="M479.752 113.796L479.752 256L367.876 305.043L367.876 162.839L479.752 113.796Z"/>
	<path fill="rgb(153,204,255)" stroke="none" d="M367.876 64.7525L479.752 113.796L367.876 162.839L256 113.796L367.876 64.7525Z"/>
	<path fill="rgb(122,163,204)" stroke="none" d="M144.124 305.043L256 354.087L256 496.291L144.124 447.247L144.124 305.043Z"/>
	<path fill="rgb(137,183,229)" stroke="none" d="M367.876 305.043L367.876 447.247L256 496.291L256 354.087L367.876 305.043Z"/>
	<path fill="rgb(153,204,255)" stroke="none" d="M256 256L367.876 305.043L256 354.087L144.124 305.043L256 256Z"/>
</svg>
