<?xml version="1.0" encoding="utf-8" ?>
<svg xmlns="http://www.w3.org/2000/svg" xmlns:xlink="http://www.w3.org/1999/xlink" width="512" height="512">
	<path fill="rgb(81,122,204)" stroke="none" d="M228.031 241.276L256 253.537L256 289.088L228.031 276.827L228.031 241.276Z"/>
	<path fill="rgb(91,137,229)" stroke="none" d="M283.969 241.276L283.969 276.827L256 289.088L256 253.537L283.969 241.276Z"/>
	<path fill="rgb(81,122,204)" stroke="none" d="M228.031 205.725L256 217.986L256 253.537L228.031 241.276L228.031 205.725Z"/>
	<path fill="rgb(91,137,229)" stroke="none" d="M283.969 205.725L283.969 241.276L256 253.537L256 217.986L283.969 205.725Z"/>
	<path fill="rgb(81,122,204)" stroke="none" d="M228.031 170.174L256 182.435L256 217.986L228.031 205.725L228.031 170.174Z"/>
	<path fill="rgb(91,137,229)" stroke="none" d="M283.969 170.174L283.969 205.725L256 217.986L256 182.435L283.969 170.174Z"/>
	<path fill="rgb(81,122,204)" stroke="none" d="M228.031 134.623L256 146.884L256 182.435L228.031 170.174L228.031 134.623Z"/>
	<path fill="rgb(91,137,229)" stroke="none" d="M283.969 134.623L283.969 170.174L256 182.435L256 146.884L283.969 134.623Z"/>
	<path fill="rgb(81,122,204)" stroke="none" d="M228.031 99.0722L256 111.333L256 146.884L228.031 134.623L228.031 99.0722Z"/>
	<path fill="rgb(91,137,229)" stroke="none" d="M283.969 99.0722L283.969 134.623L256 146.884L256 111.333L283.969 99.0722Z"/>
	<path fill="rgb(81,122,204)" stroke="none" d="M228.031 63.5211L256 75.7819L256 111.333L228.031 99.0722L228.031 63.5211Z"/>
	<path fill="rgb(91,137,229)" stroke="none" d="M283.969 63.5211L283.969 99.0722L256 111.333L256 75.7819L283.969 63.5211Z"/>
	<path fill="rgb(102,153,255)" stroke="none" d="M256 15.7093L283.969 27.9701L256 40.2309L228.031 27.9701L256 15.7093Z"/>
	<path fill="rgb(91,137,229)" stroke="none" d="M256 289.088L256 324.639L228.031 336.9L228.031 301.349L256 289.088Z"/>
	<path fill="rgb(102,153,255)" stroke="none" d="M228.031 276.827L256 289.088L228.031 301.349L200.062 289.088L228.031 276.827Z"/>
	<path fill="rgb(91,137,229)" stroke="none" d="M256 40.2309L256 75.7819L228.031 88.0428L228.031 52.4917L256 40.2309Z"/>
	<path fill="rgb(102,153,255)" stroke="none" d="M228.031 27.9701L256 40.2309L228.031 52.4917L200.062 40.2309L228.031 27.9701Z"/>
	<path fill="rgb(91,137,229)" stroke="none" d="M228.031 301.349L228.031 336.9L200.062 349.161L200.062 313.61L228.031 301.349Z"/>
	<path fill="rgb(102,153,255)" stroke="none" d="M200.062 289.088L228.031 301.349L200.062 313.61L172.093 301.349L200.062 289.088Z"/>
	<path fill="rgb(91,137,229)" stroke="none" d="M228.031 52.4917L228.031 88.0428L200.062 100.304L200.062 64.7525L228.031 52.4917Z"/>
	<path fill="rgb(102,153,255)" stroke="none" d="M200.062 40.2309L228.031 52.4917L200.062 64.7525L172.093 52.4917L200.062 40.2309Z"/>
	<path fill="rgb(91,137,229)" stroke="none" d="M200.062 313.61L200.062 349.161L172.093 361.422L172.093 325.871L200.062 313.61Z"/>
	<path fill="rgb(102,153,255)" stroke="none" d="M172.093 301.349L200.062 313.61L172.093 325.871L144.124 313.61L172.093 301.349Z"/>
	<path fill="rgb(91,137,229)" stroke="none" d="M200.062 64.7525L200.062 100.304L172.093 112.564L172.093 77.0133L200.062 64.7525Z"/>
	<path fill="rgb(102,153,255)" stroke="none" d="M172.093 52.4917L200.062 64.7525L172.093 77.0133L144.124 64.7525L172.093 52.4917Z"/>
	<path fill="rgb(91,137,229)" stroke="none" d="M172.093 325.871L172.093 361.422L144.124 373.683L144.124 338.132L172.093 325.871Z"/>
	<path fill="rgb(102,153,255)" stroke="none" d="M144.124 313.61L172.093 325.871L144.124 338.132L116.155 325.871L144.124 313.61Z"/>
	<path fill="rgb(91,137,229)" stroke="none" d="M172.093 77.0133L172.093 112.564L144.124 124.825L144.124 89.2741L172.093 77.0133Z"/>
	<path fill="rgb(102,153,255)" stroke="none" d="M144.124 64.7525L172.093 77.0133L144.124 89.2741L116.155 77.0133L144.124 64.7525Z"/>
	<path fill="rgb(91,137,229)" stroke="none" d="M144.124 338.132L144.124 373.683L116.155 385.943L116.155 350.392L144.124 338.132Z"/>
	<path fill="rgb(102,153,255)" stroke="none" d="M116.155 325.871L144.124 338.132L116.155 350.392L88.1858 338.132L116.155 325.871Z"/>
	<path fill="rgb(91,137,229)" stroke="none" d="M144.124 89.2741L144.124 124.825L116.155 137.086L116.155 101.535L144.124 89.2741Z"/>
	<path fill="rgb(102,153,255)" stroke="none" d="M116.155 77.0133L144.124 89.2741L116.155 101.535L88.1858 89.2741L116.155 77.0133Z"/>
	<path fill="rgb(91,137,229)" stroke="none" d="M116.155 350.392L116.155 385.943L88.1858 398.204L88.1858 362.653L116.155 350.392Z"/>
	<path fill="rgb(102,153,255)" stroke="none" d="M88.1858 338.132L116.155 350.392L88.1858 362.653L60.2168 350.392L88.1858 338.132Z"/>
	<path fill="rgb(91,137,229)" stroke="none" d="M116.155 101.535L116.155 137.086L88.1858 149.347L88.1858 113.796L116.155 101.535Z"/>
	<path fill="rgb(102,153,255)" stroke="none" d="M88.1858 89.2741L116.155 101.535L88.1858 113.796L60.2168 101.535L88.1858 89.2741Z"/>
	<path fill="rgb(81,122,204)" stroke="none" d="M32.2478 362.653L60.2168 374.914L60.2168 410.465L32.2478 398.204L32.2478 362.653Z"/>
	<path fill="rgb(81,122,204)" stroke="none" d="M32.2478 327.102L60.2168 339.363L60.2168 374.914L32.2478 362.653L32.2478 327.102Z"/>
	<path fill="rgb(91,137,229)" stroke="none" d="M88.1858 327.102L88.1858 362.653L60.2168 374.914L60.2168 339.363L88.1858 327.102Z"/>
	<path fill="rgb(81,122,204)" stroke="none" d="M32.2478 291.551L60.2168 303.812L60.2168 339.363L32.2478 327.102L32.2478 291.551Z"/>
	<path fill="rgb(91,137,229)" stroke="none" d="M88.1858 291.551L88.1858 327.102L60.2168 339.363L60.2168 303.812L88.1858 291.551Z"/>
	<path fill="rgb(81,122,204)" stroke="none" d="M32.2478 256L60.2168 268.261L60.2168 303.812L32.2478 291.551L32.2478 256Z"/>
	<path fill="rgb(91,137,229)" stroke="none" d="M88.1858 256L88.1858 291.551L60.2168 303.812L60.2168 268.261L88.1858 256Z"/>
	<path fill="rgb(81,122,204)" stroke="none" d="M32.2478 220.449L60.2168 232.71L60.2168 268.261L32.2478 256L32.2478 220.449Z"/>
	<path fill="rgb(91,137,229)" stroke="none" d="M88.1858 220.449L88.1858 256L60.2168 268.261L60.2168 232.71L88.1858 220.449Z"/>
	<path fill="rgb(81,122,204)" stroke="none" d="M32.2478 184.898L60.2168 197.159L60.2168 232.71L32.2478 220.449L32.2478 184.898Z"/>
	<path fill="rgb(91,137,229)" stroke="none" d="M88.1858 184.898L88.1858 220.449L60.2168 232.71L60.2168 197.159L88.1858 184.898Z"/>
	<path fill="rgb(81,122,204)" stroke="none" d="M32.2478 149.347L60.2168 161.608L60.2168 197.159L32.2478 184.898L32.2478 149.347Z"/>
	<path fill="rgb(91,137,229)" stroke="none" d="M88.1858 149.347L88.1858 184.898L60.2168 197.159L60.2168 161.608L88.1858 149.347Z"/>
	<path fill="rgb(81,122,204)" stroke="none" d="M32.2478 113.796L60.2168 126.057L60.2168 161.608L32.2478 149.347L32.2478 113.796Z"/>
	<path fill="rgb(102,153,255)" stroke="none" d="M60.2168 101.535L88.1858 113.796L60.2168 126.057L32.2478 113.796L60.2168 101.535Z"/>
	<path fill="rgb(81,122,204)" stroke="none" d="M256 289.088L283.969 301.349L283.969 336.9L256 324.639L256 289.088Z"/>
	<path fill="rgb(102,153,255)" stroke="none" d="M283.969 276.827L311.938 289.088L283.969 301.349L256 289.088L283.969 276.827Z"/>
	<path fill="rgb(81,122,204)" stroke="none" d="M256 40.2309L283.969 52.4917L283.969 88.0427L256 75.7819L256 40.2309Z"/>
	<path fill="rgb(102,153,255)" stroke="none" d="M283.969 27.9701L311.938 40.2309L283.969 52.4917L256 40.2309L283.969 27.9701Z"/>
	<path fill="rgb(81,122,204)" stroke="none" d="M60.2168 374.914L88.1858 387.175L88.1858 422.726L60.2168 410.465L60.2168 374.914Z"/>
	<path fill="rgb(102,153,255)" stroke="none" d="M88.1858 362.653L116.155 374.914L88.1858 387.175L60.2168 374.914L88.1858 362.653Z"/>
	<path fill="rgb(81,122,204)" stroke="none" d="M60.2168 126.057L88.1858 138.317L88.1858 173.868L60.2168 161.608L60.2168 126.057Z"/>
	<path fill="rgb(102,153,255)" stroke="none" d="M88.1858 113.796L116.155 126.057L88.1858 138.317L60.2168 126.057L88.1858 113.796Z"/>
	<path fill="rgb(81,122,204)" stroke="none" d="M283.969 301.349L311.938 313.61L311.938 349.161L283.969 336.9L283.969 301.349Z"/>
	<path fill="rgb(102,153,255)" stroke="none" d="M311.938 289.088L339.907 301.349L311.938 313.61L283.969 301.349L311.938 289.088Z"/>
	<path fill="rgb(81,122,204)" stroke="none" d="M283.969 52.4917L311.938 64.7525L311.938 100.304L283.969 88.0427L283.969 52.4917Z"/>
	<path fill="rgb(102,153,255)" stroke="none" d="M311.938 40.2309L339.907 52.4917L311.938 64.7525L283.969 52.4917L311.938 40.2309Z"/>
	<path fill="rgb(81,122,204)" stroke="none" d="M88.1858 387.175L116.155 399.436L116.155 434.987L88.1858 422.726L88.1858 387.175Z"/>
	<path fill="rgb(102,153,255)" stroke="none" d="M116.155 374.914L144.124 387.175L116.155 399.436L88.1858 387.175L116.155 374.914Z"/>
	<path fill="rgb(81,122,204)" stroke="none" d="M88.1858 138.317L116.155 150.578L116.155 186.129L88.1858 173.868L88.1858 138.317Z"/>
	<path fill="rgb(102,153,255)" stroke="none" d="M116.155 126.057L144.124 138.317L116.155 150.578L88.1858 138.317L116.155 126.057Z"/>
	<path fill="rgb(81,122,204)" stroke="none" d="M311.938 313.61L339.907 325.871L339.907 361.422L311.938 349.161L311.938 313.61Z"/>
	<path fill="rgb(102,153,255)" stroke="none" d="M339.907 301.349L367.876 313.61L339.907 325.871L311.938 313.61L339.907 301.349Z"/>
	<path fill="rgb(81,122,204)" stroke="none" d="M311.938 64.7525L339.907 77.0133L339.907 112.564L311.938 100.304L311.938 64.7525Z"/>
	<path fill="rgb(102,153,255)" stroke="none" d="M339.907 52.4917L367.876 64.7525L339.907 77.0133L311.938 64.7525L339.907 52.4917Z"/>
	<path fill="rgb(81,122,204)" stroke="none" d="M116.155 399.436L144.124 411.696L144.124 447.247L116.155 434.987L116.155 399.436Z"/>
	<path fill="rgb(102,153,255)" stroke="none" d="M144.124 387.175L172.093 399.436L144.124 411.696L116.155 399.436L144.124 387.175Z"/>
	<path fill="rgb(81,122,204)" stroke="none" d="M116.155 150.578L144.124 162.839L144.124 198.39L116.155 186.129L116.155 150.578Z"/>
	<path fill="rgb(102,153,255)" stroke="none" d="M144.124 138.317L172.093 150.578L144.124 162.839L116.155 150.578L144.124 138.317Z"/>
	<path fill="rgb(81,122,204)" stroke="none" d="M339.907 325.871L367.876 338.132L367.876 373.683L339.907 361.422L339.907 325.871Z"/>
	<path fill="rgb(102,153,255)" stroke="none" d="M367.876 313.61L395.845 325.871L367.876 338.132L339.907 325.871L367.876 313.61Z"/>
	<path fill="rgb(81,122,204)" stroke="none" d="M339.907 77.0133L367.876 89.2741L367.876 124.825L339.907 112.564L339.907 77.0133Z"/>
	<path fill="rgb(102,153,255)" stroke="none" d="M367.876 64.7525L395.845 77.0133L367.876 89.2741L339.907 77.0133L367.876 64.7525Z"/>
	<path fill="rgb(81,122,204)" stroke="none" d="M144.124 411.696L172.093 423.957L172.093 459.508L144.124 447.247L144.124 411.696Z"/>
	<path fill="rgb(102,153,255)" stroke="none" d="M172.093 399.436L200.062 411.696L172.093 423.957L144.124 411.696L172.093 399.436Z"/>
	<path fill="rgb(81,122,204)" stroke="none" d="M144.124 162.839L172.093 175.1L172.093 210.651L144.124 198.39L144.124 162.839Z"/>
	<path fill="rgb(102,153,255)" stroke="none" d="M172.093 150.578L200.062 162.839L172.093 175.1L144.124 162.839L172.093 150.578Z"/>
	<path fill="rgb(81,122,204)" stroke="none" d="M367.876 338.132L395.845 350.392L395.845 385.943L367.876 373.683L367.876 338.132Z"/>
	<path fill="rgb(102,153,255)" stroke="none" d="M395.845 325.871L423.814 338.132L395.845 350.392L367.876 338.132L395.845 325.871Z"/>
	<path fill="rgb(81,122,204)" stroke="none" d="M367.876 89.2741L395.845 101.535L395.845 137.086L367.876 124.825L367.876 89.2741Z"/>
	<path fill="rgb(102,153,255)" stroke="none" d="M395.845 77.0133L423.814 89.2741L395.845 101.535L367.876 89.2741L395.845 77.0133Z"/>
	<path fill="rgb(81,122,204)" stroke="none" d="M172.093 423.957L200.062 436.218L200.062 471.769L172.093 459.508L172.093 423.957Z"/>
	<path fill="rgb(102,153,255)" stroke="none" d="M200.062 411.696L228.031 423.957L200.062 436.218L172.093 423.957L200.062 411.696Z"/>
	<path fill="rgb(81,122,204)" stroke="none" d="M172.093 175.1L200.062 187.361L200.062 222.912L172.093 210.651L172.093 175.1Z"/>
	<path fill="rgb(102,153,255)" stroke="none" d="M200.062 162.839L228.031 175.1L200.062 187.361L172.093 175.1L200.062 162.839Z"/>
	<path fill="rgb(81,122,204)" stroke="none" d="M395.845 350.392L423.814 362.653L423.814 398.204L395.845 385.943L395.845 350.392Z"/>
	<path fill="rgb(102,153,255)" stroke="none" d="M423.814 338.132L451.783 350.392L423.814 362.653L395.845 350.392L423.814 338.132Z"/>
	<path fill="rgb(81,122,204)" stroke="none" d="M395.845 101.535L423.814 113.796L423.814 149.347L395.845 137.086L395.845 101.535Z"/>
	<path fill="rgb(102,153,255)" stroke="none" d="M423.814 89.2741L451.783 101.535L423.814 113.796L395.845 101.535L423.814 89.2741Z"/>
	<path fill="rgb(81,122,204)" stroke="none" d="M200.062 436.218L228.031 448.479L228.031 484.03L200.062 471.769L200.062 436.218Z"/>
	<path fill="rgb(102,153,255)" stroke="none" d="M228.031 423.957L256 436.218L228.031 448.479L200.062 436.218L228.031 423.957Z"/>
	<path fill="rgb(81,122,204)" stroke="none" d="M200.062 187.361L228.031 199.621L228.031 235.173L200.062 222.912L200.062 187.361Z"/>
	<path fill="rgb(102,153,255)" stroke="none" d="M228.031 175.1L256 187.361L228.031 199.621L200.062 187.361L228.031 175.1Z"/>
	<path fill="rgb(91,137,229)" stroke="none" d="M479.752 362.653L479.752 398.204L451.783 410.465L451.783 374.914L479.752 362.653Z"/>
	<path fill="rgb(81,122,204)" stroke="none" d="M423.814 327.102L451.783 339.363L451.783 374.914L423.814 362.653L423.814 327.102Z"/>
	<path fill="rgb(91,137,229)" stroke="none" d="M479.752 327.102L479.752 362.653L451.783 374.914L451.783 339.363L479.752 327.102Z"/>
	<path fill="rgb(81,122,204)" stroke="none" d="M423.814 291.551L451.783 303.812L451.783 339.363L423.814 327.102L423.814 291.551Z"/>
	<path fill="rgb(91,137,229)" stroke="none" d="M479.752 291.551L479.752 327.102L451.783 339.363L451.783 303.812L479.752 291.551Z"/>
	<path fill="rgb(81,122,204)" stroke="none" d="M423.814 256L451.783 268.261L451.783 303.812L423.814 291.551L423.814 256Z"/>
	<path fill="rgb(91,137,229)" stroke="none" d="M479.752 256L479.752 291.551L451.783 303.812L451.783 268.261L479.752 256Z"/>
	<path fill="rgb(81,122,204)" stroke="none" d="M423.814 220.449L451.783 232.71L451.783 268.261L423.814 256L423.814 220.449Z"/>
	<path fill="rgb(91,137,229)" stroke="none" d="M479.752 220.449L479.752 256L451.783 268.261L451.783 232.71L479.752 220.449Z"/>
	<path fill="rgb(81,122,204)" stroke="none" d="M423.814 184.898L451.783 197.159L451.783 232.71L423.814 220.449L423.814 184.898Z"/>
	<path fill="rgb(91,137,229)" stroke="none" d="M479.752 184.898L479.752 220.449L451.783 232.71L451.783 197.159L479.752 184.898Z"/>
	<path fill="rgb(81,122,204)" stroke="none" d="M423.814 149.347L451.783 161.608L451.783 197.159L423.814 184.898L423.814 149.347Z"/>
	<path fill="rgb(91,137,229)" stroke="none" d="M479.752 149.347L479.752 184.898L451.783 197.159L451.783 161.608L479.752 149.347Z"/>
	<path fill="rgb(91,137,229)" stroke="none" d="M479.752 113.796L479.752 149.347L451.783 161.608L451.783 126.057L479.752 113.796Z"/>
	<path fill="rgb(102,153,255)" stroke="none" d="M451.783 101.535L479.752 113.796L451.783 126.057L423.814 113.796L451.783 101.535Z"/>
	<path fill="rgb(91,137,229)" stroke="none" d="M451.783 374.914L451.783 410.465L423.814 422.726L423.814 387.175L451.783 374.914Z"/>
	<path fill="rgb(102,153,255)" stroke="none" d="M423.814 362.653L451.783 374.914L423.814 387.175L395.845 374.914L423.814 362.653Z"/>
	<path fill="rgb(91,137,229)" stroke="none" d="M451.783 126.057L451.783 161.608L423.814 173.868L423.814 138.317L451.783 126.057Z"/>
	<path fill="rgb(102,153,255)" stroke="none" d="M423.814 113.796L451.783 126.057L423.814 138.317L395.845 126.057L423.814 113.796Z"/>
	<path fill="rgb(91,137,229)" stroke="none" d="M423.814 387.175L423.814 422.726L395.845 434.987L395.845 399.436L423.814 387.175Z"/>
	<path fill="rgb(102,153,255)" stroke="none" d="M395.845 374.914L423.814 387.175L395.845 399.436L367.876 387.175L395.845 374.914Z"/>
	<path fill="rgb(91,137,229)" stroke="none" d="M423.814 138.317L423.814 173.868L395.845 186.129L395.845 150.578L423.814 138.317Z"/>
	<path fill="rgb(102,153,255)" stroke="none" d="M395.845 126.057L423.814 138.317L395.845 150.578L367.876 138.317L395.845 126.057Z"/>
	<path fill="rgb(91,137,229)" stroke="none" d="M395.845 399.436L395.845 434.987L367.876 447.247L367.876 411.696L395.845 399.436Z"/>
	<path fill="rgb(102,153,255)" stroke="none" d="M367.876 387.175L395.845 399.436L367.876 411.696L339.907 399.436L367.876 387.175Z"/>
	<path fill="rgb(91,137,229)" stroke="none" d="M395.845 150.578L395.845 186.129L367.876 198.39L367.876 162.839L395.845 150.578Z"/>
	<path fill="rgb(102,153,255)" stroke="none" d="M367.876 138.317L395.845 150.578L367.876 162.839L339.907 150.578L367.876 138.317Z"/>
	<path fill="rgb(91,137,229)" stroke="none" d="M367.876 411.696L367.876 447.247L339.907 459.508L339.907 423.957L367.876 411.696Z"/>
	<path fill="rgb(102,153,255)" stroke="none" d="M339.907 399.436L367.876 411.696L339.907 423.957L311.938 411.696L339.907 399.436Z"/>
	<path fill="rgb(91,137,229)" stroke="none" d="M367.876 162.839L367.876 198.39L339.907 210.651L339.907 175.1L367.876 162.839Z"/>
	<path fill="rgb(102,153,255)" stroke="none" d="M339.907 150.578L367.876 162.839L339.907 175.1L311.938 162.839L339.907 150.578Z"/>
	<path fill="rgb(91,137,229)" stroke="none" d="M339.907 423.957L339.907 459.508L311.938 471.769L311.938 436.218L339.907 423.957Z"/>
	<path fill="rgb(102,153,255)" stroke="none" d="M311.938 411.696L339.907 423.957L311.938 436.218L283.969 423.957L311.938 411.696Z"/>
	<path fill="rgb(91,137,229)" stroke="none" d="M339.907 175.1L339.907 210.651L311.938 222.912L311.938 187.361L339.907 175.1Z"/>
	<path fill="rgb(102,153,255)" stroke="none" d="M311.938 162.839L339.907 175.1L311.938 187.361L283.969 175.1L311.938 162.839Z"/>
	<path fill="rgb(91,137,229)" stroke="none" d="M311.938 436.218L311.938 471.769L283.969 484.03L283.969 448.479L311.938 436.218Z"/>
	<path fill="rgb(102,153,255)" stroke="none" d="M283.969 423.957L311.938 436.218L283.969 448.479L256 436.218L283.969 423.957Z"/>
	<path fill="rgb(91,137,229)" stroke="none" d="M311.938 187.361L311.938 222.912L283.969 235.173L283.969 199.621L311.938 187.361Z"/>
	<path fill="rgb(102,153,255)" stroke="none" d="M283.969 175.1L311.938 187.361L283.969 199.621L256 187.361L283.969 175.1Z"/>
	<path fill="rgb(81,122,204)" stroke="none" d="M228.031 448.479L256 460.74L256 496.291L228.031 484.03L228.031 448.479Z"/>
	<path fill="rgb(91,137,229)" stroke="none" d="M283.969 448.479L283.969 484.03L256 496.291L256 460.74L283.969 448.479Z"/>
	<path fill="rgb(81,122,204)" stroke="none" d="M228.031 412.928L256 425.189L256 460.74L228.031 448.479L228.031 412.928Z"/>
	<path fill="rgb(91,137,229)" stroke="none" d="M283.969 412.928L283.969 448.479L256 460.74L256 425.189L283.969 412.928Z"/>
	<path fill="rgb(81,122,204)" stroke="none" d="M228.031 377.377L256 389.638L256 425.189L228.031 412.928L228.031 377.377Z"/>
	<path fill="rgb(91,137,229)" stroke="none" d="M283.969 377.377L283.969 412.928L256 425.189L256 389.638L283.969 377.377Z"/>
	<path fill="rgb(81,122,204)" stroke="none" d="M228.031 341.826L256 354.087L256 389.638L228.031 377.377L228.031 341.826Z"/>
	<path fill="rgb(91,137,229)" stroke="none" d="M283.969 341.826L283.969 377.377L256 389.638L256 354.087L283.969 341.826Z"/>
	<path fill="rgb(81,122,204)" stroke="none" d="M228.031 306.275L256 318.535L256 354.087L228.031 341.826L228.031 306.275Z"/>
	<path fill="rgb(91,137,229)" stroke="none" d="M283.969 306.275L283.969 341.826L256 354.087L256 318.535L283.969 306.275Z"/>
	<path fill="rgb(81,122,204)" stroke="none" d="M228.031 270.724L256 282.984L256 318.535L228.031 306.275L228.031 270.724Z"/>
	<path fill="rgb(91,137,229)" stroke="none" d="M283.969 270.724L283.969 306.275L256 318.535L256 282.984L283.969 270.724Z"/>
	<path fill="rgb(81,122,204)" stroke="none" d="M228.031 235.173L256 247.433L256 282.984L228.031 270.724L228.031 235.173Z"/>
	<path fill="rgb(91,137,229)" stroke="none" d="M283.969 235.173L283.969 270.724L256 282.984L256 247.433L283.969 235.173Z"/>
	<path fill="rgb(81,122,204)" stroke="none" d="M228.031 199.621L256 211.882L256 247.433L228.031 235.173L228.031 199.621Z"/>
	<path fill="rgb(91,137,229)" stroke="none" d="M283.969 199.621L283.969 235.173L256 247.433L256 211.882L283.969 199.621Z"/>
	<path fill="rgb(102,153,255)" stroke="none" d="M256 187.361L283.969 199.621L256 211.882L228.031 199.621L256 187.361Z"/>
</svg>
