<?xml version="1.0" encoding="utf-8" ?>
<svg xmlns="http://www.w3.org/2000/svg" xmlns:xlink="http://www.w3.org/1999/xlink" width="512" height="512">
	<path fill="rgb(165,165,165)" stroke="none" d="M247.394 254.863L247.394 276.741L230.182 284.286L230.182 262.408L247.394 254.863Z"/>
	<path fill="rgb(184,184,184)" stroke="none" d="M230.182 247.318L247.394 254.863L230.182 262.408L212.971 254.863L230.182 247.318Z"/>
	<path fill="rgb(184,184,184)" stroke="none" d="M212.971 232.986L230.182 240.531L212.971 248.076L195.759 240.531L212.971 232.986Z"/>
	<path fill="rgb(152,0,204)" stroke="none" d="M212.971 145.475L230.182 153.021L212.971 160.566L195.759 153.021L212.971 145.475Z"/>
	<path fill="rgb(147,147,147)" stroke="none" d="M178.547 248.076L195.759 255.621L195.759 277.499L178.547 269.954L178.547 248.076Z"/>
	<path fill="rgb(184,184,184)" stroke="none" d="M195.759 240.531L212.971 248.076L195.759 255.621L178.547 248.076L195.759 240.531Z"/>
	<path fill="rgb(121,0,163)" stroke="none" d="M178.547 160.566L195.759 168.111L195.759 189.988L178.547 182.443L178.547 160.566Z"/>
	<path fill="rgb(152,0,204)" stroke="none" d="M195.759 153.021L212.971 160.566L195.759 168.111L178.547 160.566L195.759 153.021Z"/>
	<path fill="rgb(147,147,147)" stroke="none" d="M161.336 277.499L178.547 285.044L178.547 306.921L161.336 299.376L161.336 277.499Z"/>
	<path fill="rgb(165,165,165)" stroke="none" d="M195.759 277.499L195.759 299.376L178.547 306.921L178.547 285.044L195.759 277.499Z"/>
	<path fill="rgb(184,184,184)" stroke="none" d="M178.547 269.954L195.759 277.499L178.547 285.044L161.336 277.499L178.547 269.954Z"/>
	<path fill="rgb(152,0,204)" stroke="none" d="M281.818 305.406L299.029 312.951L281.818 320.496L264.606 312.951L281.818 305.406Z"/>
	<path fill="rgb(136,0,183)" stroke="none" d="M281.818 342.374L281.818 364.251L264.606 371.796L264.606 349.919L281.818 342.374Z"/>
	<path fill="rgb(152,0,204)" stroke="none" d="M264.606 312.951L281.818 320.496L264.606 328.041L247.394 320.496L264.606 312.951Z"/>
	<path fill="rgb(136,0,183)" stroke="none" d="M264.606 349.919L264.606 371.796L247.394 379.341L247.394 357.464L264.606 349.919Z"/>
	<path fill="rgb(152,0,204)" stroke="none" d="M247.394 320.496L264.606 328.041L247.394 335.586L230.182 328.041L247.394 320.496Z"/>
	<path fill="rgb(152,0,204)" stroke="none" d="M247.394 145.475L264.606 153.021L247.394 160.566L230.182 153.021L247.394 145.475Z"/>
	<path fill="rgb(136,0,183)" stroke="none" d="M247.394 357.464L247.394 379.341L230.182 386.887L230.182 365.009L247.394 357.464Z"/>
	<path fill="rgb(152,0,204)" stroke="none" d="M230.182 328.041L247.394 335.586L230.182 343.131L212.971 335.586L230.182 328.041Z"/>
	<path fill="rgb(152,0,204)" stroke="none" d="M230.182 131.143L247.394 138.688L230.182 146.233L212.971 138.688L230.182 131.143Z"/>
	<path fill="rgb(136,0,183)" stroke="none" d="M230.182 365.009L230.182 386.887L212.971 394.432L212.971 372.554L230.182 365.009Z"/>
	<path fill="rgb(152,0,204)" stroke="none" d="M212.971 335.586L230.182 343.131L212.971 350.677L195.759 343.131L212.971 335.586Z"/>
	<path fill="rgb(147,147,147)" stroke="none" d="M195.759 277.499L212.971 285.044L212.971 306.921L195.759 299.376L195.759 277.499Z"/>
	<path fill="rgb(147,147,147)" stroke="none" d="M195.759 255.621L212.971 263.166L212.971 285.044L195.759 277.499L195.759 255.621Z"/>
	<path fill="rgb(147,147,147)" stroke="none" d="M195.759 233.744L212.971 241.289L212.971 263.166L195.759 255.621L195.759 233.744Z"/>
	<path fill="rgb(147,147,147)" stroke="none" d="M195.759 211.866L212.971 219.411L212.971 241.289L195.759 233.744L195.759 211.866Z"/>
	<path fill="rgb(147,147,147)" stroke="none" d="M195.759 189.988L212.971 197.534L212.971 219.411L195.759 211.866L195.759 189.988Z"/>
	<path fill="rgb(121,0,163)" stroke="none" d="M195.759 146.233L212.971 153.778L212.971 175.656L195.759 168.111L195.759 146.233Z"/>
	<path fill="rgb(152,0,204)" stroke="none" d="M212.971 138.688L230.182 146.233L212.971 153.778L195.759 146.233L212.971 138.688Z"/>
	<path fill="rgb(136,0,183)" stroke="none" d="M212.971 372.554L212.971 394.432L195.759 401.977L195.759 380.099L212.971 372.554Z"/>
	<path fill="rgb(152,0,204)" stroke="none" d="M195.759 343.131L212.971 350.677L195.759 358.222L178.547 350.677L195.759 343.131Z"/>
	<path fill="rgb(121,0,163)" stroke="none" d="M178.547 175.656L195.759 183.201L195.759 205.079L178.547 197.533L178.547 175.656Z"/>
	<path fill="rgb(152,0,204)" stroke="none" d="M195.759 168.111L212.971 175.656L195.759 183.201L178.547 175.656L195.759 168.111Z"/>
	<path fill="rgb(121,0,163)" stroke="none" d="M161.336 380.099L178.547 387.644L178.547 409.522L161.336 401.977L161.336 380.099Z"/>
	<path fill="rgb(136,0,183)" stroke="none" d="M195.759 380.099L195.759 401.977L178.547 409.522L178.547 387.644L195.759 380.099Z"/>
	<path fill="rgb(152,0,204)" stroke="none" d="M178.547 350.677L195.759 358.222L178.547 365.767L161.336 358.222L178.547 350.677Z"/>
	<path fill="rgb(121,0,163)" stroke="none" d="M144.124 365.767L161.336 373.312L161.336 395.189L144.124 387.644L144.124 365.767Z"/>
	<path fill="rgb(152,0,204)" stroke="none" d="M161.336 358.222L178.547 365.767L161.336 373.312L144.124 365.767L161.336 358.222Z"/>
	<path fill="rgb(121,0,163)" stroke="none" d="M281.818 342.374L299.029 349.919L299.029 371.796L281.818 364.251L281.818 342.374Z"/>
	<path fill="rgb(152,0,204)" stroke="none" d="M299.029 312.951L316.241 320.496L299.029 328.041L281.818 320.496L299.029 312.951Z"/>
	<path fill="rgb(152,0,204)" stroke="none" d="M281.818 276.741L299.029 284.286L281.818 291.831L264.606 284.286L281.818 276.741Z"/>
	<path fill="rgb(152,0,204)" stroke="none" d="M281.818 145.475L299.029 153.021L281.818 160.566L264.606 153.021L281.818 145.475Z"/>
	<path fill="rgb(152,0,204)" stroke="none" d="M264.606 240.531L281.818 248.076L264.606 255.621L247.394 248.076L264.606 240.531Z"/>
	<path fill="rgb(152,0,204)" stroke="none" d="M264.606 131.143L281.818 138.688L264.606 146.233L247.394 138.688L264.606 131.143Z"/>
	<path fill="rgb(152,0,204)" stroke="none" d="M247.394 116.811L264.606 124.356L247.394 131.901L230.182 124.356L247.394 116.811Z"/>
	<path fill="rgb(147,147,147)" stroke="none" d="M212.971 241.289L230.182 248.834L230.182 270.711L212.971 263.166L212.971 241.289Z"/>
	<path fill="rgb(121,0,163)" stroke="none" d="M212.971 131.901L230.182 139.446L230.182 161.323L212.971 153.778L212.971 131.901Z"/>
	<path fill="rgb(152,0,204)" stroke="none" d="M230.182 124.356L247.394 131.901L230.182 139.446L212.971 131.901L230.182 124.356Z"/>
	<path fill="rgb(121,0,163)" stroke="none" d="M195.759 292.589L212.971 300.134L212.971 322.012L195.759 314.466L195.759 292.589Z"/>
	<path fill="rgb(121,0,163)" stroke="none" d="M195.759 270.711L212.971 278.256L212.971 300.134L195.759 292.589L195.759 270.711Z"/>
	<path fill="rgb(152,0,204)" stroke="none" d="M212.971 263.166L230.182 270.711L212.971 278.256L195.759 270.711L212.971 263.166Z"/>
	<path fill="rgb(147,147,147)" stroke="none" d="M195.759 226.956L212.971 234.501L212.971 256.379L195.759 248.834L195.759 226.956Z"/>
	<path fill="rgb(147,147,147)" stroke="none" d="M195.759 205.079L212.971 212.624L212.971 234.501L195.759 226.956L195.759 205.079Z"/>
	<path fill="rgb(121,0,163)" stroke="none" d="M195.759 161.323L212.971 168.869L212.971 190.746L195.759 183.201L195.759 161.323Z"/>
	<path fill="rgb(152,0,204)" stroke="none" d="M212.971 153.778L230.182 161.323L212.971 168.869L195.759 161.323L212.971 153.778Z"/>
	<path fill="rgb(121,0,163)" stroke="none" d="M178.547 343.889L195.759 351.434L195.759 373.312L178.547 365.767L178.547 343.889Z"/>
	<path fill="rgb(121,0,163)" stroke="none" d="M178.547 322.012L195.759 329.557L195.759 351.434L178.547 343.889L178.547 322.012Z"/>
	<path fill="rgb(152,0,204)" stroke="none" d="M195.759 314.466L212.971 322.012L195.759 329.557L178.547 322.012L195.759 314.466Z"/>
	<path fill="rgb(121,0,163)" stroke="none" d="M178.547 190.746L195.759 198.291L195.759 220.169L178.547 212.624L178.547 190.746Z"/>
	<path fill="rgb(152,0,204)" stroke="none" d="M195.759 183.201L212.971 190.746L195.759 198.291L178.547 190.746L195.759 183.201Z"/>
	<path fill="rgb(121,0,163)" stroke="none" d="M161.336 395.189L178.547 402.735L178.547 424.612L161.336 417.067L161.336 395.189Z"/>
	<path fill="rgb(121,0,163)" stroke="none" d="M161.336 373.312L178.547 380.857L178.547 402.735L161.336 395.189L161.336 373.312Z"/>
	<path fill="rgb(152,0,204)" stroke="none" d="M178.547 365.767L195.759 373.312L178.547 380.857L161.336 373.312L178.547 365.767Z"/>
	<path fill="rgb(121,0,163)" stroke="none" d="M299.029 349.919L316.241 357.464L316.241 379.341L299.029 371.796L299.029 349.919Z"/>
	<path fill="rgb(136,0,183)" stroke="none" d="M333.453 349.919L333.453 371.796L316.241 379.341L316.241 357.464L333.453 349.919Z"/>
	<path fill="rgb(152,0,204)" stroke="none" d="M316.241 320.496L333.453 328.041L316.241 335.586L299.029 328.041L316.241 320.496Z"/>
	<path fill="rgb(136,0,183)" stroke="none" d="M333.453 153.021L333.453 174.898L316.241 182.443L316.241 160.566L333.453 153.021Z"/>
	<path fill="rgb(152,0,204)" stroke="none" d="M316.241 145.475L333.453 153.021L316.241 160.566L299.029 153.021L316.241 145.475Z"/>
	<path fill="rgb(152,0,204)" stroke="none" d="M299.029 262.408L316.241 269.954L299.029 277.499L281.818 269.954L299.029 262.408Z"/>
	<path fill="rgb(165,165,165)" stroke="none" d="M316.241 182.443L316.241 204.321L299.029 211.866L299.029 189.988L316.241 182.443Z"/>
	<path fill="rgb(152,0,204)" stroke="none" d="M299.029 153.021L316.241 160.566L299.029 168.111L281.818 160.566L299.029 153.021Z"/>
	<path fill="rgb(80,38,0)" stroke="none" d="M264.606 365.009L281.818 372.554L281.818 394.432L264.606 386.887L264.606 365.009Z"/>
	<path fill="rgb(89,43,0)" stroke="none" d="M299.029 365.009L299.029 386.887L281.818 394.432L281.818 372.554L299.029 365.009Z"/>
	<path fill="rgb(152,0,204)" stroke="none" d="M281.818 248.076L299.029 255.621L281.818 263.166L264.606 255.621L281.818 248.076Z"/>
	<path fill="rgb(152,0,204)" stroke="none" d="M281.818 138.688L299.029 146.233L281.818 153.778L264.606 146.233L281.818 138.688Z"/>
	<path fill="rgb(136,0,183)" stroke="none" d="M281.818 110.023L281.818 131.901L264.606 139.446L264.606 117.568L281.818 110.023Z"/>
	<path fill="rgb(152,0,204)" stroke="none" d="M264.606 102.478L281.818 110.023L264.606 117.568L247.394 110.023L264.606 102.478Z"/>
	<path fill="rgb(121,0,163)" stroke="none" d="M230.182 248.834L247.394 256.379L247.394 278.256L230.182 270.711L230.182 248.834Z"/>
	<path fill="rgb(121,0,163)" stroke="none" d="M230.182 139.446L247.394 146.991L247.394 168.869L230.182 161.323L230.182 139.446Z"/>
	<path fill="rgb(121,0,163)" stroke="none" d="M230.182 117.568L247.394 125.113L247.394 146.991L230.182 139.446L230.182 117.568Z"/>
	<path fill="rgb(136,0,183)" stroke="none" d="M264.606 117.568L264.606 139.446L247.394 146.991L247.394 125.113L264.606 117.568Z"/>
	<path fill="rgb(152,0,204)" stroke="none" d="M247.394 110.023L264.606 117.568L247.394 125.113L230.182 117.568L247.394 110.023Z"/>
	<path fill="rgb(80,38,0)" stroke="none" d="M212.971 387.644L230.182 395.189L230.182 417.067L212.971 409.522L212.971 387.644Z"/>
	<path fill="rgb(89,43,0)" stroke="none" d="M247.394 387.644L247.394 409.522L230.182 417.067L230.182 395.189L247.394 387.644Z"/>
	<path fill="rgb(121,0,163)" stroke="none" d="M212.971 278.256L230.182 285.802L230.182 307.679L212.971 300.134L212.971 278.256Z"/>
	<path fill="rgb(152,0,204)" stroke="none" d="M230.182 270.711L247.394 278.256L230.182 285.802L212.971 278.256L230.182 270.711Z"/>
	<path fill="rgb(201,163,121)" stroke="none" d="M212.971 234.501L230.182 242.046L230.182 263.924L212.971 256.379L212.971 234.501Z"/>
	<path fill="rgb(121,0,163)" stroke="none" d="M212.971 168.869L230.182 176.414L230.182 198.291L212.971 190.746L212.971 168.869Z"/>
	<path fill="rgb(152,0,204)" stroke="none" d="M230.182 161.323L247.394 168.869L230.182 176.414L212.971 168.869L230.182 161.323Z"/>
	<path fill="rgb(121,0,163)" stroke="none" d="M195.759 351.434L212.971 358.979L212.971 380.857L195.759 373.312L195.759 351.434Z"/>
	<path fill="rgb(121,0,163)" stroke="none" d="M195.759 329.557L212.971 337.102L212.971 358.979L195.759 351.434L195.759 329.557Z"/>
	<path fill="rgb(121,0,163)" stroke="none" d="M195.759 307.679L212.971 315.224L212.971 337.102L195.759 329.557L195.759 307.679Z"/>
	<path fill="rgb(152,0,204)" stroke="none" d="M212.971 300.134L230.182 307.679L212.971 315.224L195.759 307.679L212.971 300.134Z"/>
	<path fill="rgb(147,147,147)" stroke="none" d="M195.759 220.169L212.971 227.714L212.971 249.592L195.759 242.046L195.759 220.169Z"/>
	<path fill="rgb(165,165,165)" stroke="none" d="M230.182 220.169L230.182 242.046L212.971 249.592L212.971 227.714L230.182 220.169Z"/>
	<path fill="rgb(152,0,204)" stroke="none" d="M212.971 190.746L230.182 198.291L212.971 205.836L195.759 198.291L212.971 190.746Z"/>
	<path fill="rgb(121,0,163)" stroke="none" d="M178.547 402.735L195.759 410.28L195.759 432.157L178.547 424.612L178.547 402.735Z"/>
	<path fill="rgb(136,0,183)" stroke="none" d="M212.971 402.735L212.971 424.612L195.759 432.157L195.759 410.28L212.971 402.735Z"/>
	<path fill="rgb(121,0,163)" stroke="none" d="M178.547 380.857L195.759 388.402L195.759 410.28L178.547 402.735L178.547 380.857Z"/>
	<path fill="rgb(152,0,204)" stroke="none" d="M195.759 373.312L212.971 380.857L195.759 388.402L178.547 380.857L195.759 373.312Z"/>
	<path fill="rgb(121,0,163)" stroke="none" d="M178.547 205.836L195.759 213.382L195.759 235.259L178.547 227.714L178.547 205.836Z"/>
	<path fill="rgb(136,0,183)" stroke="none" d="M212.971 205.836L212.971 227.714L195.759 235.259L195.759 213.382L212.971 205.836Z"/>
	<path fill="rgb(152,0,204)" stroke="none" d="M195.759 198.291L212.971 205.836L195.759 213.382L178.547 205.836L195.759 198.291Z"/>
	<path fill="rgb(152,0,204)" stroke="none" d="M333.453 328.041L350.664 335.586L333.453 343.131L316.241 335.586L333.453 328.041Z"/>
	<path fill="rgb(136,0,183)" stroke="none" d="M333.453 321.254L333.453 343.131L316.241 350.677L316.241 328.799L333.453 321.254Z"/>
	<path fill="rgb(136,0,183)" stroke="none" d="M333.453 299.376L333.453 321.254L316.241 328.799L316.241 306.921L333.453 299.376Z"/>
	<path fill="rgb(152,0,204)" stroke="none" d="M316.241 269.954L333.453 277.499L316.241 285.044L299.029 277.499L316.241 269.954Z"/>
	<path fill="rgb(136,0,183)" stroke="none" d="M333.453 168.111L333.453 189.988L316.241 197.534L316.241 175.656L333.453 168.111Z"/>
	<path fill="rgb(152,0,204)" stroke="none" d="M316.241 160.566L333.453 168.111L316.241 175.656L299.029 168.111L316.241 160.566Z"/>
	<path fill="rgb(136,0,183)" stroke="none" d="M316.241 328.799L316.241 350.677L299.029 358.222L299.029 336.344L316.241 328.799Z"/>
	<path fill="rgb(136,0,183)" stroke="none" d="M316.241 306.921L316.241 328.799L299.029 336.344L299.029 314.466L316.241 306.921Z"/>
	<path fill="rgb(136,0,183)" stroke="none" d="M316.241 285.044L316.241 306.921L299.029 314.466L299.029 292.589L316.241 285.044Z"/>
	<path fill="rgb(136,0,183)" stroke="none" d="M316.241 263.166L316.241 285.044L299.029 292.589L299.029 270.711L316.241 263.166Z"/>
	<path fill="rgb(226,183,136)" stroke="none" d="M316.241 219.411L316.241 241.289L299.029 248.834L299.029 226.956L316.241 219.411Z"/>
	<path fill="rgb(14,14,14)" stroke="none" d="M316.241 197.534L316.241 219.411L299.029 226.956L299.029 205.079L316.241 197.534Z"/>
	<path fill="rgb(136,0,183)" stroke="none" d="M316.241 153.778L316.241 175.656L299.029 183.201L299.029 161.323L316.241 153.778Z"/>
	<path fill="rgb(152,0,204)" stroke="none" d="M299.029 146.233L316.241 153.778L299.029 161.323L281.818 153.778L299.029 146.233Z"/>
	<path fill="rgb(136,0,183)" stroke="none" d="M299.029 336.344L299.029 358.222L281.818 365.767L281.818 343.889L299.029 336.344Z"/>
	<path fill="rgb(136,0,183)" stroke="none" d="M299.029 314.466L299.029 336.344L281.818 343.889L281.818 322.012L299.029 314.466Z"/>
	<path fill="rgb(136,0,183)" stroke="none" d="M299.029 292.589L299.029 314.466L281.818 322.012L281.818 300.134L299.029 292.589Z"/>
	<path fill="rgb(226,183,136)" stroke="none" d="M299.029 205.079L299.029 226.956L281.818 234.501L281.818 212.624L299.029 205.079Z"/>
	<path fill="rgb(136,0,183)" stroke="none" d="M299.029 139.446L299.029 161.323L281.818 168.869L281.818 146.991L299.029 139.446Z"/>
	<path fill="rgb(152,0,204)" stroke="none" d="M281.818 131.901L299.029 139.446L281.818 146.991L264.606 139.446L281.818 131.901Z"/>
	<path fill="rgb(136,0,183)" stroke="none" d="M281.818 343.889L281.818 365.767L264.606 373.312L264.606 351.434L281.818 343.889Z"/>
	<path fill="rgb(136,0,183)" stroke="none" d="M281.818 322.012L281.818 343.889L264.606 351.434L264.606 329.557L281.818 322.012Z"/>
	<path fill="rgb(136,0,183)" stroke="none" d="M281.818 300.134L281.818 322.012L264.606 329.557L264.606 307.679L281.818 300.134Z"/>
	<path fill="rgb(226,183,136)" stroke="none" d="M281.818 212.624L281.818 234.501L264.606 242.046L264.606 220.169L281.818 212.624Z"/>
	<path fill="rgb(121,0,163)" stroke="none" d="M247.394 146.991L264.606 154.536L264.606 176.414L247.394 168.869L247.394 146.991Z"/>
	<path fill="rgb(136,0,183)" stroke="none" d="M281.818 146.991L281.818 168.869L264.606 176.414L264.606 154.536L281.818 146.991Z"/>
	<path fill="rgb(152,0,204)" stroke="none" d="M264.606 139.446L281.818 146.991L264.606 154.536L247.394 146.991L264.606 139.446Z"/>
	<path fill="rgb(136,0,183)" stroke="none" d="M264.606 351.434L264.606 373.312L247.394 380.857L247.394 358.979L264.606 351.434Z"/>
	<path fill="rgb(136,0,183)" stroke="none" d="M264.606 329.557L264.606 351.434L247.394 358.979L247.394 337.102L264.606 329.557Z"/>
	<path fill="rgb(136,0,183)" stroke="none" d="M264.606 307.679L264.606 329.557L247.394 337.102L247.394 315.224L264.606 307.679Z"/>
	<path fill="rgb(121,0,163)" stroke="none" d="M230.182 285.802L247.394 293.347L247.394 315.224L230.182 307.679L230.182 285.802Z"/>
	<path fill="rgb(136,0,183)" stroke="none" d="M264.606 285.802L264.606 307.679L247.394 315.224L247.394 293.347L264.606 285.802Z"/>
	<path fill="rgb(147,147,147)" stroke="none" d="M230.182 263.924L247.394 271.469L247.394 293.347L230.182 285.802L230.182 263.924Z"/>
	<path fill="rgb(201,163,121)" stroke="none" d="M230.182 242.046L247.394 249.592L247.394 271.469L230.182 263.924L230.182 242.046Z"/>
	<path fill="rgb(226,183,136)" stroke="none" d="M264.606 242.046L264.606 263.924L247.394 271.469L247.394 249.592L264.606 242.046Z"/>
	<path fill="rgb(12,12,12)" stroke="none" d="M230.182 220.169L247.394 227.714L247.394 249.592L230.182 242.046L230.182 220.169Z"/>
	<path fill="rgb(14,14,14)" stroke="none" d="M264.606 220.169L264.606 242.046L247.394 249.592L247.394 227.714L264.606 220.169Z"/>
	<path fill="rgb(121,0,163)" stroke="none" d="M230.182 176.414L247.394 183.959L247.394 205.836L230.182 198.291L230.182 176.414Z"/>
	<path fill="rgb(136,0,183)" stroke="none" d="M264.606 176.414L264.606 198.291L247.394 205.836L247.394 183.959L264.606 176.414Z"/>
	<path fill="rgb(152,0,204)" stroke="none" d="M247.394 168.869L264.606 176.414L247.394 183.959L230.182 176.414L247.394 168.869Z"/>
	<path fill="rgb(121,0,163)" stroke="none" d="M212.971 358.979L230.182 366.525L230.182 388.402L212.971 380.857L212.971 358.979Z"/>
	<path fill="rgb(136,0,183)" stroke="none" d="M247.394 358.979L247.394 380.857L230.182 388.402L230.182 366.525L247.394 358.979Z"/>
	<path fill="rgb(121,0,163)" stroke="none" d="M212.971 337.102L230.182 344.647L230.182 366.525L212.971 358.979L212.971 337.102Z"/>
	<path fill="rgb(136,0,183)" stroke="none" d="M247.394 337.102L247.394 358.979L230.182 366.525L230.182 344.647L247.394 337.102Z"/>
	<path fill="rgb(121,0,163)" stroke="none" d="M212.971 315.224L230.182 322.769L230.182 344.647L212.971 337.102L212.971 315.224Z"/>
	<path fill="rgb(152,0,204)" stroke="none" d="M230.182 307.679L247.394 315.224L230.182 322.769L212.971 315.224L230.182 307.679Z"/>
	<path fill="rgb(121,0,163)" stroke="none" d="M212.971 205.836L230.182 213.382L230.182 235.259L212.971 227.714L212.971 205.836Z"/>
	<path fill="rgb(136,0,183)" stroke="none" d="M247.394 205.836L247.394 227.714L230.182 235.259L230.182 213.382L247.394 205.836Z"/>
	<path fill="rgb(152,0,204)" stroke="none" d="M230.182 198.291L247.394 205.836L230.182 213.382L212.971 205.836L230.182 198.291Z"/>
	<path fill="rgb(121,0,163)" stroke="none" d="M195.759 388.402L212.971 395.947L212.971 417.825L195.759 410.28L195.759 388.402Z"/>
	<path fill="rgb(152,0,204)" stroke="none" d="M212.971 380.857L230.182 388.402L212.971 395.947L195.759 388.402L212.971 380.857Z"/>
	<path fill="rgb(136,0,183)" stroke="none" d="M367.876 343.131L367.876 365.009L350.664 372.554L350.664 350.677L367.876 343.131Z"/>
	<path fill="rgb(152,0,204)" stroke="none" d="M350.664 335.586L367.876 343.131L350.664 350.677L333.453 343.131L350.664 335.586Z"/>
	<path fill="rgb(136,0,183)" stroke="none" d="M350.664 350.677L350.664 372.554L333.453 380.099L333.453 358.222L350.664 350.677Z"/>
	<path fill="rgb(152,0,204)" stroke="none" d="M333.453 343.131L350.664 350.677L333.453 358.222L316.241 350.677L333.453 343.131Z"/>
	<path fill="rgb(121,0,163)" stroke="none" d="M316.241 285.044L333.453 292.589L333.453 314.466L316.241 306.921L316.241 285.044Z"/>
	<path fill="rgb(152,0,204)" stroke="none" d="M333.453 277.499L350.664 285.044L333.453 292.589L316.241 285.044L333.453 277.499Z"/>
	<path fill="rgb(136,0,183)" stroke="none" d="M333.453 358.222L333.453 380.099L316.241 387.644L316.241 365.767L333.453 358.222Z"/>
	<path fill="rgb(152,0,204)" stroke="none" d="M316.241 350.677L333.453 358.222L316.241 365.767L299.029 358.222L316.241 350.677Z"/>
	<path fill="rgb(165,165,165)" stroke="none" d="M333.453 248.834L333.453 270.711L316.241 278.256L316.241 256.379L333.453 248.834Z"/>
	<path fill="rgb(184,184,184)" stroke="none" d="M316.241 241.289L333.453 248.834L316.241 256.379L299.029 248.834L316.241 241.289Z"/>
	<path fill="rgb(136,0,183)" stroke="none" d="M333.453 183.201L333.453 205.079L316.241 212.624L316.241 190.746L333.453 183.201Z"/>
	<path fill="rgb(152,0,204)" stroke="none" d="M316.241 175.656L333.453 183.201L316.241 190.746L299.029 183.201L316.241 175.656Z"/>
	<path fill="rgb(136,0,183)" stroke="none" d="M316.241 365.767L316.241 387.644L299.029 395.189L299.029 373.312L316.241 365.767Z"/>
	<path fill="rgb(152,0,204)" stroke="none" d="M299.029 358.222L316.241 365.767L299.029 373.312L281.818 365.767L299.029 358.222Z"/>
	<path fill="rgb(165,165,165)" stroke="none" d="M316.241 278.256L316.241 300.134L299.029 307.679L299.029 285.802L316.241 278.256Z"/>
	<path fill="rgb(165,165,165)" stroke="none" d="M316.241 256.379L316.241 278.256L299.029 285.802L299.029 263.924L316.241 256.379Z"/>
	<path fill="rgb(226,183,136)" stroke="none" d="M316.241 234.501L316.241 256.379L299.029 263.924L299.029 242.046L316.241 234.501Z"/>
	<path fill="rgb(252,204,152)" stroke="none" d="M299.029 226.956L316.241 234.501L299.029 242.046L281.818 234.501L299.029 226.956Z"/>
	<path fill="rgb(136,0,183)" stroke="none" d="M316.241 168.869L316.241 190.746L299.029 198.291L299.029 176.414L316.241 168.869Z"/>
	<path fill="rgb(152,0,204)" stroke="none" d="M299.029 161.323L316.241 168.869L299.029 176.414L281.818 168.869L299.029 161.323Z"/>
	<path fill="rgb(136,0,183)" stroke="none" d="M299.029 373.312L299.029 395.189L281.818 402.735L281.818 380.857L299.029 373.312Z"/>
	<path fill="rgb(152,0,204)" stroke="none" d="M281.818 365.767L299.029 373.312L281.818 380.857L264.606 373.312L281.818 365.767Z"/>
	<path fill="rgb(147,147,147)" stroke="none" d="M264.606 285.802L281.818 293.347L281.818 315.224L264.606 307.679L264.606 285.802Z"/>
	<path fill="rgb(165,165,165)" stroke="none" d="M299.029 285.802L299.029 307.679L281.818 315.224L281.818 293.347L299.029 285.802Z"/>
	<path fill="rgb(165,165,165)" stroke="none" d="M299.029 263.924L299.029 285.802L281.818 293.347L281.818 271.469L299.029 263.924Z"/>
	<path fill="rgb(201,163,121)" stroke="none" d="M264.606 242.046L281.818 249.592L281.818 271.469L264.606 263.924L264.606 242.046Z"/>
	<path fill="rgb(226,183,136)" stroke="none" d="M299.029 242.046L299.029 263.924L281.818 271.469L281.818 249.592L299.029 242.046Z"/>
	<path fill="rgb(252,204,152)" stroke="none" d="M281.818 234.501L299.029 242.046L281.818 249.592L264.606 242.046L281.818 234.501Z"/>
	<path fill="rgb(121,0,163)" stroke="none" d="M264.606 176.414L281.818 183.959L281.818 205.836L264.606 198.291L264.606 176.414Z"/>
	<path fill="rgb(136,0,183)" stroke="none" d="M299.029 176.414L299.029 198.291L281.818 205.836L281.818 183.959L299.029 176.414Z"/>
	<path fill="rgb(152,0,204)" stroke="none" d="M281.818 168.869L299.029 176.414L281.818 183.959L264.606 176.414L281.818 168.869Z"/>
	<path fill="rgb(136,0,183)" stroke="none" d="M281.818 380.857L281.818 402.735L264.606 410.28L264.606 388.402L281.818 380.857Z"/>
	<path fill="rgb(152,0,204)" stroke="none" d="M264.606 373.312L281.818 380.857L264.606 388.402L247.394 380.857L264.606 373.312Z"/>
	<path fill="rgb(147,147,147)" stroke="none" d="M247.394 271.469L264.606 279.014L264.606 300.892L247.394 293.347L247.394 271.469Z"/>
	<path fill="rgb(165,165,165)" stroke="none" d="M281.818 271.469L281.818 293.347L264.606 300.892L264.606 279.014L281.818 271.469Z"/>
	<path fill="rgb(184,184,184)" stroke="none" d="M264.606 263.924L281.818 271.469L264.606 279.014L247.394 271.469L264.606 263.924Z"/>
	<path fill="rgb(121,0,163)" stroke="none" d="M247.394 205.836L264.606 213.382L264.606 235.259L247.394 227.714L247.394 205.836Z"/>
	<path fill="rgb(136,0,183)" stroke="none" d="M281.818 205.836L281.818 227.714L264.606 235.259L264.606 213.382L281.818 205.836Z"/>
	<path fill="rgb(152,0,204)" stroke="none" d="M264.606 198.291L281.818 205.836L264.606 213.382L247.394 205.836L264.606 198.291Z"/>
	<path fill="rgb(136,0,183)" stroke="none" d="M264.606 388.402L264.606 410.28L247.394 417.825L247.394 395.947L264.606 388.402Z"/>
	<path fill="rgb(152,0,204)" stroke="none" d="M247.394 380.857L264.606 388.402L247.394 395.947L230.182 388.402L247.394 380.857Z"/>
	<path fill="rgb(121,0,163)" stroke="none" d="M230.182 322.769L247.394 330.314L247.394 352.192L230.182 344.647L230.182 322.769Z"/>
	<path fill="rgb(152,0,204)" stroke="none" d="M247.394 315.224L264.606 322.769L247.394 330.314L230.182 322.769L247.394 315.224Z"/>
	<path fill="rgb(121,0,163)" stroke="none" d="M212.971 395.947L230.182 403.492L230.182 425.37L212.971 417.825L212.971 395.947Z"/>
	<path fill="rgb(136,0,183)" stroke="none" d="M247.394 395.947L247.394 417.825L230.182 425.37L230.182 403.492L247.394 395.947Z"/>
	<path fill="rgb(152,0,204)" stroke="none" d="M230.182 388.402L247.394 395.947L230.182 403.492L212.971 395.947L230.182 388.402Z"/>
	<path fill="rgb(201,163,121)" stroke="none" d="M333.453 292.589L350.664 300.134L350.664 322.012L333.453 314.466L333.453 292.589Z"/>
	<path fill="rgb(226,183,136)" stroke="none" d="M367.876 292.589L367.876 314.466L350.664 322.012L350.664 300.134L367.876 292.589Z"/>
	<path fill="rgb(252,204,152)" stroke="none" d="M350.664 285.044L367.876 292.589L350.664 300.134L333.453 292.589L350.664 285.044Z"/>
	<path fill="rgb(136,0,183)" stroke="none" d="M333.453 198.291L333.453 220.169L316.241 227.714L316.241 205.836L333.453 198.291Z"/>
	<path fill="rgb(152,0,204)" stroke="none" d="M316.241 190.746L333.453 198.291L316.241 205.836L299.029 198.291L316.241 190.746Z"/>
	<path fill="rgb(121,0,163)" stroke="none" d="M281.818 205.836L299.029 213.382L299.029 235.259L281.818 227.714L281.818 205.836Z"/>
	<path fill="rgb(136,0,183)" stroke="none" d="M316.241 205.836L316.241 227.714L299.029 235.259L299.029 213.382L316.241 205.836Z"/>
	<path fill="rgb(152,0,204)" stroke="none" d="M299.029 198.291L316.241 205.836L299.029 213.382L281.818 205.836L299.029 198.291Z"/>
	<path fill="rgb(201,163,121)" stroke="none" d="M247.394 330.314L264.606 337.86L264.606 359.737L247.394 352.192L247.394 330.314Z"/>
	<path fill="rgb(252,204,152)" stroke="none" d="M264.606 322.769L281.818 330.315L264.606 337.86L247.394 330.314L264.606 322.769Z"/>
	<path fill="rgb(188,188,188)" stroke="none" d="M264.606 381.615L281.818 389.16L281.818 411.037L264.606 403.492L264.606 381.615Z"/>
	<path fill="rgb(212,212,212)" stroke="none" d="M299.029 381.615L299.029 403.492L281.818 411.037L281.818 389.16L299.029 381.615Z"/>
	<path fill="rgb(38,38,0)" stroke="none" d="M264.606 359.737L281.818 367.282L281.818 389.16L264.606 381.615L264.606 359.737Z"/>
	<path fill="rgb(43,43,0)" stroke="none" d="M299.029 359.737L299.029 381.615L281.818 389.16L281.818 367.282L299.029 359.737Z"/>
	<path fill="rgb(38,38,0)" stroke="none" d="M264.606 337.86L281.818 345.405L281.818 367.282L264.606 359.737L264.606 337.86Z"/>
	<path fill="rgb(43,43,0)" stroke="none" d="M299.029 337.86L299.029 359.737L281.818 367.282L281.818 345.405L299.029 337.86Z"/>
	<path fill="rgb(38,38,0)" stroke="none" d="M264.606 315.982L281.818 323.527L281.818 345.405L264.606 337.86L264.606 315.982Z"/>
	<path fill="rgb(43,43,0)" stroke="none" d="M299.029 315.982L299.029 337.86L281.818 345.405L281.818 323.527L299.029 315.982Z"/>
	<path fill="rgb(38,38,0)" stroke="none" d="M264.606 294.104L281.818 301.65L281.818 323.527L264.606 315.982L264.606 294.104Z"/>
	<path fill="rgb(43,43,0)" stroke="none" d="M299.029 294.104L299.029 315.982L281.818 323.527L281.818 301.65L299.029 294.104Z"/>
	<path fill="rgb(188,188,188)" stroke="none" d="M264.606 272.227L281.818 279.772L281.818 301.65L264.606 294.104L264.606 272.227Z"/>
	<path fill="rgb(212,212,212)" stroke="none" d="M299.029 272.227L299.029 294.104L281.818 301.65L281.818 279.772L299.029 272.227Z"/>
	<path fill="rgb(236,236,236)" stroke="none" d="M281.818 264.682L299.029 272.227L281.818 279.772L264.606 272.227L281.818 264.682Z"/>
</svg>
